<svg
 xmlns="http://www.w3.org/2000/svg"
 xmlns:xlink="http://www.w3.org/1999/xlink"
 width="93px" height="27px">
<path fill-rule="evenodd"  opacity="0.949" fill="rgb(32, 3, 69)"
 d="M88.384,25.967 L88.384,15.419 C88.384,13.956 88.169,12.923 87.739,12.323 C87.310,11.724 86.605,11.423 85.626,11.423 C84.861,11.423 84.187,11.609 83.602,11.981 C83.016,12.354 82.354,12.899 81.614,13.619 L81.614,25.967 L77.494,25.967 L77.494,8.291 L80.897,8.291 L81.184,10.667 L81.327,10.667 C82.115,9.899 82.969,9.240 83.888,8.687 C84.808,8.135 85.877,7.859 87.095,7.859 C88.981,7.859 90.355,8.466 91.214,9.677 C92.074,10.889 92.504,12.624 92.504,14.879 L92.504,25.967 L88.384,25.967 ZM61.482,18.191 C61.673,19.799 62.228,21.035 63.148,21.899 C64.067,22.763 65.243,23.195 66.676,23.195 C67.440,23.195 68.150,23.082 68.808,22.853 C69.464,22.625 70.115,22.308 70.760,21.899 L72.157,24.491 C71.321,25.044 70.389,25.499 69.363,25.859 C68.336,26.219 67.261,26.399 66.139,26.399 C64.921,26.399 63.786,26.189 62.736,25.769 C61.684,25.350 60.765,24.743 59.977,23.951 C59.189,23.159 58.574,22.193 58.132,21.053 C57.690,19.914 57.470,18.611 57.470,17.147 C57.470,15.707 57.696,14.411 58.150,13.259 C58.604,12.107 59.207,11.135 59.959,10.343 C60.712,9.551 61.577,8.939 62.556,8.507 C63.535,8.075 64.538,7.859 65.566,7.859 C66.759,7.859 67.810,8.063 68.718,8.471 C69.625,8.880 70.384,9.456 70.993,10.199 C71.602,10.943 72.061,11.832 72.372,12.863 C72.682,13.895 72.838,15.023 72.838,16.247 C72.838,17.063 72.778,17.711 72.658,18.191 L61.482,18.191 ZM68.378,12.251 C67.792,11.459 66.891,11.063 65.673,11.063 C64.622,11.063 63.703,11.441 62.915,12.197 C62.127,12.953 61.637,14.075 61.446,15.563 L69.255,15.563 C69.255,14.147 68.963,13.043 68.378,12.251 ZM52.204,26.399 C50.723,26.399 49.684,25.955 49.087,25.067 C48.490,24.180 48.192,22.967 48.192,21.431 L48.192,0.551 L52.311,0.551 L52.311,21.647 C52.311,22.151 52.406,22.506 52.598,22.709 C52.789,22.913 52.992,23.015 53.207,23.015 C53.302,23.015 53.392,23.015 53.475,23.015 C53.559,23.015 53.684,22.992 53.852,22.943 L54.389,26.039 C53.839,26.279 53.111,26.399 52.204,26.399 ZM41.780,26.399 C40.298,26.399 39.260,25.955 38.663,25.067 C38.066,24.180 37.767,22.967 37.767,21.431 L37.767,0.551 L41.887,0.551 L41.887,21.647 C41.887,22.151 41.982,22.506 42.174,22.709 C42.364,22.913 42.568,23.015 42.783,23.015 C42.878,23.015 42.967,23.015 43.051,23.015 C43.135,23.015 43.260,22.992 43.427,22.943 L43.965,26.039 C43.415,26.279 42.687,26.399 41.780,26.399 ZM29.743,5.195 C29.003,5.195 28.394,4.979 27.916,4.547 C27.438,4.115 27.200,3.552 27.200,2.855 C27.200,2.159 27.438,1.590 27.916,1.145 C28.394,0.701 29.003,0.479 29.743,0.479 C30.483,0.479 31.092,0.701 31.570,1.145 C32.048,1.590 32.287,2.159 32.287,2.855 C32.287,3.552 32.048,4.115 31.570,4.547 C31.092,4.979 30.483,5.195 29.743,5.195 ZM17.492,15.203 C17.492,14.651 17.510,14.051 17.546,13.403 C17.582,12.755 17.623,12.102 17.671,11.441 C17.719,10.781 17.779,10.133 17.851,9.497 C17.922,8.862 17.981,8.268 18.030,7.715 L17.886,7.715 L15.988,13.079 L11.940,23.771 L10.041,23.771 L5.993,13.079 L4.130,7.715 L3.987,7.715 C4.035,8.268 4.088,8.862 4.148,9.497 C4.208,10.133 4.261,10.781 4.309,11.441 C4.357,12.102 4.399,12.755 4.435,13.403 C4.471,14.051 4.489,14.651 4.489,15.203 L4.489,25.967 L0.691,25.967 L0.691,2.423 L5.241,2.423 L9.468,14.015 L11.008,18.479 L11.152,18.479 L12.692,14.015 L16.812,2.423 L21.397,2.423 L21.397,25.967 L17.492,25.967 L17.492,15.203 ZM31.785,25.967 L27.666,25.967 L27.666,8.291 L31.785,8.291 L31.785,25.967 Z"/>
</svg>
