<?xml version="1.0" encoding="utf-8"?>
<!-- Generator: Adobe Illustrator 16.0.0, SVG Export Plug-In . SVG Version: 6.00 Build 0)  -->
<!DOCTYPE svg PUBLIC "-//W3C//DTD SVG 1.1//EN" "http://www.w3.org/Graphics/SVG/1.1/DTD/svg11.dtd">
<svg version="1.1" id="Capa_1" xmlns="http://www.w3.org/2000/svg" xmlns:xlink="http://www.w3.org/1999/xlink" x="0px" y="0px"
	 width="225px" height="225px" viewBox="847.5 -2 225 225" enable-background="new 847.5 -2 225 225" xml:space="preserve">
<g>
	<g>
		<path d="M1002.188-2h-84.375C878.986-2,847.5,29.486,847.5,68.313v84.375c0,38.826,31.486,70.313,70.313,70.313h84.375
			c38.826,0,70.313-31.486,70.313-70.313V68.313C1072.5,29.486,1041.014-2,1002.188-2z M1051.406,152.688
			c0,27.141-22.078,49.219-49.219,49.219h-84.375c-27.141,0-49.219-22.078-49.219-49.219V68.313
			c0-27.141,22.078-49.219,49.219-49.219h84.375c27.141,0,49.219,22.078,49.219,49.219V152.688z"/>
	</g>
</g>
<g>
	<g>
		<path d="M960,54.25c-31.064,0-56.25,25.186-56.25,56.25c0,31.064,25.186,56.25,56.25,56.25s56.25-25.186,56.25-56.25
			C1016.25,79.436,991.064,54.25,960,54.25z M960,145.656c-19.378,0-35.156-15.778-35.156-35.156
			c0-19.392,15.778-35.156,35.156-35.156s35.156,15.764,35.156,35.156C995.156,129.878,979.378,145.656,960,145.656z"/>
	</g>
</g>
<g>
	<g>
		<circle cx="1020.469" cy="50.031" r="7.495"/>
	</g>
</g>
</svg>
